<svg width="1440" height="1024" viewBox="0 0 1440 1024" fill="none" xmlns="http://www.w3.org/2000/svg">
<g clip-path="url(#clip0_3_46)">
<path d="M0 485.149L26.72 486.488C53.28 487.827 106.72 490.504 160 513.664C213.28 536.958 266.72 580.601 320 572.569C373.28 564.536 426.72 504.829 480 483.81C533.28 462.792 586.72 480.731 640 488.764C693.28 496.796 746.72 494.922 800 490.772C853.28 486.488 906.72 479.794 960 472.699C1013.28 465.47 1066.72 457.973 1120 467.478C1173.28 477.117 1226.72 503.892 1280 518.618C1333.28 533.344 1386.72 536.021 1413.28 537.36L1440 538.699V1026H1413.28C1386.72 1026 1333.28 1026 1280 1026C1226.72 1026 1173.28 1026 1120 1026C1066.72 1026 1013.28 1026 960 1026C906.72 1026 853.28 1026 800 1026C746.72 1026 693.28 1026 640 1026C586.72 1026 533.28 1026 480 1026C426.72 1026 373.28 1026 320 1026C266.72 1026 213.28 1026 160 1026C106.72 1026 53.28 1026 26.72 1026H0V485.149Z" fill="#E53AAC"/>
<path d="M0 639.859L26.72 627.259C53.28 614.523 106.72 589.323 160 582.277C213.28 575.232 266.72 586.613 320 600.839C373.28 615.065 426.72 632.137 480 639.182C533.28 646.227 586.72 642.976 640 629.969C693.28 616.827 746.72 593.794 800 589.323C853.28 584.716 906.72 598.807 960 595.555C1013.28 592.439 1066.72 572.116 1120 557.483C1173.28 542.715 1226.72 533.772 1280 536.482C1333.28 539.192 1386.72 553.554 1413.28 560.87L1440 568.051V1026H1413.28C1386.72 1026 1333.28 1026 1280 1026C1226.72 1026 1173.28 1026 1120 1026C1066.72 1026 1013.28 1026 960 1026C906.72 1026 853.28 1026 800 1026C746.72 1026 693.28 1026 640 1026C586.72 1026 533.28 1026 480 1026C426.72 1026 373.28 1026 320 1026C266.72 1026 213.28 1026 160 1026C106.72 1026 53.28 1026 26.72 1026H0V639.859Z" fill="#CA3BAD"/>
<path d="M0 690.768L26.72 677.467C53.28 664.03 106.72 637.429 160 633.493C213.28 629.693 266.72 648.694 320 661.995C373.28 675.431 426.72 683.031 480 677.602C533.28 672.174 586.72 653.715 640 647.744C693.28 641.908 746.72 648.694 800 663.352C853.28 678.145 906.72 700.675 960 711.804C1013.28 722.934 1066.72 722.391 1120 707.461C1173.28 692.532 1226.72 663.216 1280 651.137C1333.28 639.193 1386.72 644.622 1413.28 647.337L1440 650.051V1026H1413.28C1386.72 1026 1333.28 1026 1280 1026C1226.72 1026 1173.28 1026 1120 1026C1066.72 1026 1013.28 1026 960 1026C906.72 1026 853.28 1026 800 1026C746.72 1026 693.28 1026 640 1026C586.72 1026 533.28 1026 480 1026C426.72 1026 373.28 1026 320 1026C266.72 1026 213.28 1026 160 1026C106.72 1026 53.28 1026 26.72 1026H0V690.768Z" fill="#AE3DAC"/>
<path d="M0 784.389L26.72 777.874C53.28 771.223 106.72 758.192 160 748.419C213.28 738.646 266.72 732.402 320 736.474C373.28 740.546 426.72 754.934 480 758.871C533.28 762.671 586.72 755.885 640 754.527C693.28 753.17 746.72 757.242 800 766.065C853.28 774.888 906.72 788.461 960 778.688C1013.28 769.051 1066.72 735.931 1120 721.272C1173.28 706.612 1226.72 710.141 1280 716.521C1333.28 722.901 1386.72 731.859 1413.28 736.474L1440 740.954V1026H1413.28C1386.72 1026 1333.28 1026 1280 1026C1226.72 1026 1173.28 1026 1120 1026C1066.72 1026 1013.28 1026 960 1026C906.72 1026 853.28 1026 800 1026C746.72 1026 693.28 1026 640 1026C586.72 1026 533.28 1026 480 1026C426.72 1026 373.28 1026 320 1026C266.72 1026 213.28 1026 160 1026C106.72 1026 53.28 1026 26.72 1026H0V784.389Z" fill="#923DA9"/>
<path d="M0 866.077L26.72 858.894C53.28 851.576 106.72 837.21 160 832.602C213.28 828.129 266.72 833.551 320 840.327C373.28 847.103 426.72 855.235 480 849.407C533.28 843.444 586.72 823.657 640 815.932C693.28 808.207 746.72 812.815 800 811.188C853.28 809.562 906.72 801.973 960 800.346C1013.28 798.72 1066.72 803.328 1120 803.734C1173.28 804.141 1226.72 800.617 1280 802.108C1333.28 803.734 1386.72 810.511 1413.28 813.899L1440 817.287V1026H1413.28C1386.72 1026 1333.28 1026 1280 1026C1226.72 1026 1173.28 1026 1120 1026C1066.72 1026 1013.28 1026 960 1026C906.72 1026 853.28 1026 800 1026C746.72 1026 693.28 1026 640 1026C586.72 1026 533.28 1026 480 1026C426.72 1026 373.28 1026 320 1026C266.72 1026 213.28 1026 160 1026C106.72 1026 53.28 1026 26.72 1026H0V866.077Z" fill="#743DA3"/>
<path d="M0 906.439L26.72 901.276C53.28 895.978 106.72 885.652 160 887.146C213.28 888.777 266.72 902.363 320 909.564C373.28 916.901 426.72 917.716 480 920.026C533.28 922.335 586.72 925.868 640 928.177C693.28 930.487 746.72 931.302 800 927.77C853.28 924.102 906.72 915.95 960 916.357C1013.28 916.901 1066.72 925.868 1120 922.743C1173.28 919.618 1226.72 904.129 1280 897.336C1333.28 890.543 1386.72 892.445 1413.28 893.26L1440 894.211V1026H1413.28C1386.72 1026 1333.28 1026 1280 1026C1226.72 1026 1173.28 1026 1120 1026C1066.72 1026 1013.28 1026 960 1026C906.72 1026 853.28 1026 800 1026C746.72 1026 693.28 1026 640 1026C586.72 1026 533.28 1026 480 1026C426.72 1026 373.28 1026 320 1026C266.72 1026 213.28 1026 160 1026C106.72 1026 53.28 1026 26.72 1026H0V906.439Z" fill="#563C9B"/>
</g>
<defs>
<clipPath id="clip0_3_46">
<rect width="1440" height="1024" fill="white"/>
</clipPath>
</defs>
</svg>
