<svg width="1440" height="1024" viewBox="0 0 1440 1024" fill="none" xmlns="http://www.w3.org/2000/svg">
<g clip-path="url(#clip0_12_42)">
<path d="M0 469.333L30.08 472.747C60.32 476.16 120.48 482.987 180.48 502.613C240.48 522.24 300.32 554.667 360.32 553.472C420.32 552.448 480.48 517.632 540.48 505.515C600.48 493.227 660.32 503.467 720.32 502.955C780.32 502.272 840.48 491.008 900.48 490.325C960.48 489.813 1020.32 500.053 1080.32 496.299C1140.32 492.715 1200.48 474.966 1260.48 491.862C1320.48 508.587 1380.32 559.787 1410.08 585.387L1440 610.987V1025.71H1410.08C1380.32 1025.71 1320.48 1025.71 1260.48 1025.71C1200.48 1025.71 1140.32 1025.71 1080.32 1025.71C1020.32 1025.71 960.48 1025.71 900.48 1025.71C840.48 1025.71 780.32 1025.71 720.32 1025.71C660.32 1025.71 600.48 1025.71 540.48 1025.71C480.48 1025.71 420.32 1025.71 360.32 1025.71C300.32 1025.71 240.48 1025.71 180.48 1025.71C120.48 1025.71 60.32 1025.71 30.08 1025.71H0V469.333Z" fill="#E53AAC"/>
<path d="M0 621.227L30.08 607.573C60.32 593.92 120.48 566.613 180.48 567.467C240.48 568.32 300.32 597.334 360.32 607.915C420.32 618.326 480.48 610.475 540.48 619.52C600.48 628.565 660.32 654.848 720.32 647.339C780.32 640 840.48 599.04 900.48 568.832C960.48 538.795 1020.32 519.339 1080.32 527.019C1140.32 534.699 1200.48 569.515 1260.48 600.405C1320.48 631.467 1380.32 658.773 1410.08 672.427L1440 686.08V1025.71H1410.08C1380.32 1025.71 1320.48 1025.71 1260.48 1025.71C1200.48 1025.71 1140.32 1025.71 1080.32 1025.71C1020.32 1025.71 960.48 1025.71 900.48 1025.71C840.48 1025.71 780.32 1025.71 720.32 1025.71C660.32 1025.71 600.48 1025.71 540.48 1025.71C480.48 1025.71 420.32 1025.71 360.32 1025.71C300.32 1025.71 240.48 1025.71 180.48 1025.71C120.48 1025.71 60.32 1025.71 30.08 1025.71H0V621.227Z" fill="#D63EB4"/>
<path d="M0 634.88L30.08 651.947C60.32 669.013 120.48 703.147 180.48 720.555C240.48 737.792 300.32 738.475 360.32 714.752C420.32 691.2 480.48 643.413 540.48 626.859C600.48 610.475 660.32 625.152 720.32 631.125C780.32 637.099 840.48 634.368 900.48 624.981C960.48 615.595 1020.32 599.552 1080.32 611.328C1140.32 622.933 1200.48 662.187 1260.48 689.152C1320.48 716.288 1380.32 730.965 1410.08 738.475L1440 745.813V1025.71H1410.08C1380.32 1025.71 1320.48 1025.71 1260.48 1025.71C1200.48 1025.71 1140.32 1025.71 1080.32 1025.71C1020.32 1025.71 960.48 1025.71 900.48 1025.71C840.48 1025.71 780.32 1025.71 720.32 1025.71C660.32 1025.71 600.48 1025.71 540.48 1025.71C480.48 1025.71 420.32 1025.71 360.32 1025.71C300.32 1025.71 240.48 1025.71 180.48 1025.71C120.48 1025.71 60.32 1025.71 30.08 1025.71H0V634.88Z" fill="#C642BB"/>
<path d="M0 687.787L30.08 691.712C60.32 695.808 120.48 703.659 180.48 700.928C240.48 698.027 300.32 684.373 360.32 696.661C420.32 708.779 480.48 747.008 540.48 756.907C600.48 766.805 660.32 748.715 720.32 743.253C780.32 737.792 840.48 745.301 900.48 734.208C960.48 723.115 1020.32 693.419 1080.32 693.419C1140.32 693.419 1200.48 723.115 1260.48 747.179C1320.48 771.413 1380.32 790.187 1410.08 799.573L1440 808.96V1025.71H1410.08C1380.32 1025.71 1320.48 1025.71 1260.48 1025.71C1200.48 1025.71 1140.32 1025.71 1080.32 1025.71C1020.32 1025.71 960.48 1025.71 900.48 1025.71C840.48 1025.71 780.32 1025.71 720.32 1025.71C660.32 1025.71 600.48 1025.71 540.48 1025.71C480.48 1025.71 420.32 1025.71 360.32 1025.71C300.32 1025.71 240.48 1025.71 180.48 1025.71C120.48 1025.71 60.32 1025.71 30.08 1025.71H0V687.787Z" fill="#B447C1"/>
<path d="M0 788.48L30.08 795.648C60.32 802.645 120.48 816.981 180.48 813.568C240.48 810.154 300.32 788.992 360.32 776.021C420.32 762.88 480.48 757.76 540.48 773.12C600.48 788.48 660.32 824.32 720.32 833.706C780.32 843.093 840.48 826.026 900.48 811.008C960.48 795.818 1020.32 782.848 1080.32 770.56C1140.32 758.272 1200.48 747.008 1260.48 750.08C1320.48 753.152 1380.32 770.901 1410.08 779.605L1440 788.48V1025.71H1410.08C1380.32 1025.71 1320.48 1025.71 1260.48 1025.71C1200.48 1025.71 1140.32 1025.71 1080.32 1025.71C1020.32 1025.71 960.48 1025.71 900.48 1025.71C840.48 1025.71 780.32 1025.71 720.32 1025.71C660.32 1025.71 600.48 1025.71 540.48 1025.71C480.48 1025.71 420.32 1025.71 360.32 1025.71C300.32 1025.71 240.48 1025.71 180.48 1025.71C120.48 1025.71 60.32 1025.71 30.08 1025.71H0V788.48Z" fill="#A14BC6"/>
<path d="M0 909.653L30.08 908.459C60.32 907.435 120.48 905.045 180.48 889.173C240.48 873.301 300.32 843.605 360.32 831.147C420.32 818.688 480.48 823.125 540.48 831.147C600.48 839.168 660.32 850.432 720.32 851.968C780.32 853.333 840.48 844.8 900.48 843.093C960.48 841.387 1020.32 846.507 1080.32 844.288C1140.32 841.899 1200.48 832.341 1260.48 826.027C1320.48 819.712 1380.32 816.981 1410.08 815.445L1440 814.08V1025.71H1410.08C1380.32 1025.71 1320.48 1025.71 1260.48 1025.71C1200.48 1025.71 1140.32 1025.71 1080.32 1025.71C1020.32 1025.71 960.48 1025.71 900.48 1025.71C840.48 1025.71 780.32 1025.71 720.32 1025.71C660.32 1025.71 600.48 1025.71 540.48 1025.71C480.48 1025.71 420.32 1025.71 360.32 1025.71C300.32 1025.71 240.48 1025.71 180.48 1025.71C120.48 1025.71 60.32 1025.71 30.08 1025.71H0V909.653Z" fill="#8B50CA"/>
<path d="M0 948.907L30.08 949.419C60.32 950.101 120.48 951.126 180.48 943.787C240.48 936.448 300.32 920.405 360.32 916.139C420.32 911.872 480.48 919.381 540.48 925.525C600.48 931.84 660.32 936.96 720.32 940.885C780.32 944.981 840.48 947.712 900.48 943.445C960.48 939.179 1020.32 927.915 1080.32 921.088C1140.32 914.262 1200.48 911.872 1260.48 914.773C1320.48 917.675 1380.32 925.526 1410.08 929.622L1440 933.547V1025.71H1410.08C1380.32 1025.71 1320.48 1025.71 1260.48 1025.71C1200.48 1025.71 1140.32 1025.71 1080.32 1025.71C1020.32 1025.71 960.48 1025.71 900.48 1025.71C840.48 1025.71 780.32 1025.71 720.32 1025.71C660.32 1025.71 600.48 1025.71 540.48 1025.71C480.48 1025.71 420.32 1025.71 360.32 1025.71C300.32 1025.71 240.48 1025.71 180.48 1025.71C120.48 1025.71 60.32 1025.71 30.08 1025.71H0V948.907Z" fill="#7353CC"/>
</g>
<defs>
<clipPath id="clip0_12_42">
<rect width="1440" height="1024" fill="white"/>
</clipPath>
</defs>
</svg>
