<svg width="32" height="32" viewBox="0 0 32 32" fill="none" xmlns="http://www.w3.org/2000/svg">
<g clip-path="url(#clip0_16_40)">
<path d="M0 -0.000190496L0.668444 0.196129C1.34044 0.392448 3.16667 -1.12883 4.5 0C5.83333 1.12883 6.67378 -1.93122 8.00711 -1.99993C9.34044 -2.05883 14.6738 -1.30258 16.0071 -1.99951C17.3404 -2.70626 18.1667 -0.470552 19.5 -0.5C20.8333 -0.539264 22.6738 -1.96025 24.0071 -1.99951C25.3404 -2.02896 24.1667 -0.284049 25.5 -0.5C26.8333 -0.706135 27.6667 -0.471779 29 0.5C30.3333 1.46196 33.6649 3.82534 32.5 6.5V8L32 31.9998H31.3351C30.6738 31.9998 29.344 31.9998 28.0107 31.9998C26.6773 31.9998 25.3404 31.9998 24.0071 31.9998C22.6738 31.9998 21.344 31.9998 20.0107 31.9998C18.6773 31.9998 17.3404 31.9998 16.0071 31.9998C14.6738 31.9998 13.344 31.9998 12.0107 31.9998C10.6773 31.9998 9.34044 31.9998 8.00711 31.9998C6.67378 31.9998 5.344 31.9998 4.01067 31.9998C2.67733 31.9998 1.34044 31.9998 0.668444 31.9998H0V-0.000190496Z" fill="#E53AAC"/>
<path d="M0 8.55744L0.668444 7.76612C1.34044 6.97481 2.67733 5.39219 4.01067 5.44165C5.344 5.49111 6.67378 7.17264 8.00711 7.78591C9.34044 8.38928 10.6773 7.93428 12.0107 8.45852C13.344 8.98276 14.6738 10.506 16.0071 10.0708C17.3404 9.64549 18.6773 7.27155 20.0107 5.52078C21.344 3.7799 22.6738 2.65228 24.0071 3.09739C25.3404 3.54251 26.6773 5.56035 28.0107 7.35069C29.344 9.15092 30.6738 10.7335 31.3351 11.5248L32 12.3162V32H31.3351C30.6738 32 29.344 32 28.0107 32C26.6773 32 25.3404 32 24.0071 32C22.6738 32 21.344 32 20.0107 32C18.6773 32 17.3404 32 16.0071 32C14.6738 32 13.344 32 12.0107 32C10.6773 32 9.34044 32 8.00711 32C6.67378 32 5.344 32 4.01067 32C2.67733 32 1.34044 32 0.668444 32H0V8.55744Z" fill="#D63EB4"/>
<path d="M0 9.58879L0.668444 10.5674C1.34044 11.5461 2.67733 13.5034 4.01067 14.5016C5.344 15.4901 6.67378 15.5292 8.00711 14.1689C9.34044 12.8183 10.6773 10.0781 12.0107 9.12882C13.344 8.18931 14.6738 9.03095 16.0071 9.37348C17.3404 9.71601 18.6773 9.55943 20.0107 9.02117C21.344 8.48291 22.6738 7.56297 24.0071 8.23824C25.3404 8.90373 26.6773 11.1546 28.0107 12.7009C29.344 14.257 30.6738 15.0986 31.3351 15.5292L32 15.95V32H31.3351C30.6738 32 29.344 32 28.0107 32C26.6773 32 25.3404 32 24.0071 32C22.6738 32 21.344 32 20.0107 32C18.6773 32 17.3404 32 16.0071 32C14.6738 32 13.344 32 12.0107 32C10.6773 32 9.34044 32 8.00711 32C6.67378 32 5.344 32 4.01067 32C2.67733 32 1.34044 32 0.668444 32H0V9.58879Z" fill="#C642BB"/>
<path d="M0 13L0.668444 13.2207C1.34044 13.451 2.67733 13.8924 4.01067 13.7389C5.344 13.5758 6.67378 12.8081 8.00711 13.499C9.34044 14.1803 10.6773 16.3298 12.0107 16.8864C13.344 17.4429 14.6738 16.4258 16.0071 16.1187C17.3404 15.8116 18.6773 16.2338 20.0107 15.6101C21.344 14.9864 22.6738 13.3167 24.0071 13.3167C25.3404 13.3167 26.6773 14.9864 28.0107 16.3394C29.344 17.702 30.6738 18.7576 31.3351 19.2854L32 19.8131V32H31.3351C30.6738 32 29.344 32 28.0107 32C26.6773 32 25.3404 32 24.0071 32C22.6738 32 21.344 32 20.0107 32C18.6773 32 17.3404 32 16.0071 32C14.6738 32 13.344 32 12.0107 32C10.6773 32 9.34044 32 8.00711 32C6.67378 32 5.344 32 4.01067 32C2.67733 32 1.34044 32 0.668444 32H0V13Z" fill="#B447C1"/>
<path d="M0 18.2546L0.668444 18.6699C1.34044 19.0754 2.67733 19.906 4.01067 19.7083C5.344 19.5105 6.67378 18.2843 8.00711 17.5327C9.34044 16.7713 10.6773 16.4746 12.0107 17.3646C13.344 18.2546 14.6738 20.3312 16.0071 20.8751C17.3404 21.419 18.6773 20.4301 20.0107 19.5599C21.344 18.6798 22.6738 17.9283 24.0071 17.2163C25.3404 16.5043 26.6773 15.8516 28.0107 16.0296C29.344 16.2076 30.6738 17.2361 31.3351 17.7404L32 18.2546V32H31.3351C30.6738 32 29.344 32 28.0107 32C26.6773 32 25.3404 32 24.0071 32C22.6738 32 21.344 32 20.0107 32C18.6773 32 17.3404 32 16.0071 32C14.6738 32 13.344 32 12.0107 32C10.6773 32 9.34044 32 8.00711 32C6.67378 32 5.344 32 4.01067 32C2.67733 32 1.34044 32 0.668444 32H0V18.2546Z" fill="#A14BC6"/>
<path d="M0 25.4194L0.668444 25.3516C1.34044 25.2935 2.67733 25.1581 4.01067 24.2581C5.344 23.3581 6.67378 21.6742 8.00711 20.9677C9.34044 20.2613 10.6773 20.5129 12.0107 20.9677C13.344 21.4226 14.6738 22.0613 16.0071 22.1484C17.3404 22.2258 18.6773 21.7419 20.0107 21.6452C21.344 21.5484 22.6738 21.8387 24.0071 21.7129C25.3404 21.5774 26.6773 21.0355 28.0107 20.6774C29.344 20.3194 30.6738 20.1645 31.3351 20.0774L32 20V32H31.3351C30.6738 32 29.344 32 28.0107 32C26.6773 32 25.3404 32 24.0071 32C22.6738 32 21.344 32 20.0107 32C18.6773 32 17.3404 32 16.0071 32C14.6738 32 13.344 32 12.0107 32C10.6773 32 9.34044 32 8.00711 32C6.67378 32 5.344 32 4.01067 32C2.67733 32 1.34044 32 0.668444 32H0V25.4194Z" fill="#8B50CA"/>
<path d="M0 27.891L0.668444 27.9184C1.34044 27.9549 2.67733 28.0097 4.01067 27.6171C5.344 27.2245 6.67378 26.3661 8.00711 26.1379C9.34044 25.9096 10.6773 26.3114 12.0107 26.6401C13.344 26.9779 14.6738 27.2519 16.0071 27.4619C17.3404 27.681 18.6773 27.8271 20.0107 27.5988C21.344 27.3706 22.6738 26.7679 24.0071 26.4027C25.3404 26.0374 26.6773 25.9096 28.0107 26.0648C29.344 26.22 30.6738 26.6401 31.3351 26.8592L32 27.0692V32H31.3351C30.6738 32 29.344 32 28.0107 32C26.6773 32 25.3404 32 24.0071 32C22.6738 32 21.344 32 20.0107 32C18.6773 32 17.3404 32 16.0071 32C14.6738 32 13.344 32 12.0107 32C10.6773 32 9.34044 32 8.00711 32C6.67378 32 5.344 32 4.01067 32C2.67733 32 1.34044 32 0.668444 32H0V27.891Z" fill="#7353CC"/>
<path d="M6.783 14.501V16.503L6.849 18.857C6.849 18.934 6.783 19 6.706 19H5.243C5.166 19 5.1 18.934 5.1 18.857L5.166 16.503V14.501H4.451C4.374 14.501 4.308 14.435 4.308 14.358V13.478C4.308 13.401 4.374 13.335 4.451 13.335H5.166V12.961C5.166 11.674 6.068 11.19 7.014 11.19C7.344 11.19 7.718 11.234 7.993 11.278C8.07 11.289 8.136 11.366 8.136 11.443V12.312C8.136 12.378 8.07 12.433 7.993 12.422C7.839 12.389 7.641 12.367 7.399 12.367C7.036 12.367 6.783 12.543 6.783 13.115V13.335H7.993C8.07 13.335 8.136 13.401 8.136 13.478V14.358C8.136 14.435 8.07 14.501 7.993 14.501H6.783ZM14.3377 16.151C14.3377 17.955 13.2927 19.143 11.4447 19.143C9.59668 19.143 8.52968 17.988 8.52968 16.184C8.52968 14.38 9.59668 13.192 11.4447 13.192C13.2927 13.192 14.3377 14.347 14.3377 16.151ZM10.2127 16.195C10.2127 17.471 10.6197 18.043 11.4447 18.043C12.2587 18.043 12.6437 17.482 12.6437 16.184C12.6437 14.908 12.2477 14.292 11.4337 14.292C10.5977 14.303 10.2127 14.919 10.2127 16.195ZM16.6365 19H15.2395C15.1625 19 15.0965 18.934 15.0965 18.857L15.1515 16.162L15.0965 13.478C15.0965 13.401 15.1625 13.335 15.2395 13.335H16.6145C16.6915 13.335 16.7575 13.401 16.7465 13.478L16.7135 14.292C17.1535 13.621 17.9125 13.291 18.7375 13.291C18.8035 13.291 18.8805 13.302 18.9465 13.313C19.0235 13.324 19.0895 13.401 19.0895 13.478V14.413C19.0895 14.49 19.0345 14.545 18.9465 14.545C18.8915 14.534 18.8365 14.534 18.7815 14.534C17.6155 14.534 16.7465 15.183 16.7575 16.481L16.7795 18.857C16.7795 18.934 16.7135 19 16.6365 19ZM21.3447 16.173V16.965L21.4107 18.857C21.4107 18.934 21.3447 19 21.2677 19H19.8157C19.7387 19 19.6727 18.934 19.6727 18.857L19.7387 16.965L19.6947 13.478C19.6947 13.401 19.7607 13.335 19.8377 13.335H21.1687C21.2457 13.335 21.3117 13.401 21.3007 13.478L21.2787 14.05C21.6747 13.5 22.1807 13.203 22.9067 13.203C23.6987 13.203 24.2597 13.544 24.5127 14.259C25.0077 13.412 25.5797 13.203 26.2507 13.203C27.3947 13.203 28.0547 13.896 28.0547 15.403V16.965L28.0987 18.857C28.0987 18.934 28.0327 19 27.9557 19H26.5257C26.4487 19 26.3827 18.934 26.3827 18.857L26.4487 16.965V15.425C26.4487 14.743 26.1517 14.413 25.7007 14.413C25.2497 14.413 24.6887 15.018 24.6887 16.173V16.965L24.7547 18.857C24.7547 18.934 24.6887 19 24.6117 19H23.1817C23.1047 19 23.0387 18.934 23.0387 18.857L23.1047 16.965V15.425C23.1047 14.743 22.8187 14.413 22.3567 14.413C21.8947 14.413 21.3447 15.018 21.3447 16.173Z" fill="#FCFBF4"/>
</g>
<defs>
<clipPath id="clip0_16_40">
<rect width="32" height="32" rx="8" fill="white"/>
</clipPath>
</defs>
</svg>
