<svg width="32" height="32" viewBox="0 0 32 32" fill="none" xmlns="http://www.w3.org/2000/svg">
<g clip-path="url(#clip0_16_40)">
<path d="M0 0L0.668444 0.196319C1.34044 0.392638 2.67733 0.785276 4.01067 1.91411C5.344 3.04294 6.67378 4.90797 8.00711 4.83926C9.34044 4.78037 10.6773 2.77792 12.0107 2.08098C13.344 1.37423 14.6738 1.96319 16.0071 1.93374C17.3404 1.89448 18.6773 1.24662 20.0107 1.20736C21.344 1.17791 22.6738 1.76687 24.0071 1.55092C25.3404 1.34478 26.6773 0.323928 28.0107 1.29571C29.344 2.25767 30.6738 5.20245 31.3351 6.67485L32 8.14724V32H31.3351C30.6738 32 29.344 32 28.0107 32C26.6773 32 25.3404 32 24.0071 32C22.6738 32 21.344 32 20.0107 32C18.6773 32 17.3404 32 16.0071 32C14.6738 32 13.344 32 12.0107 32C10.6773 32 9.34044 32 8.00711 32C6.67378 32 5.344 32 4.01067 32C2.67733 32 1.34044 32 0.668444 32H0V0Z" fill="#E53AAC"/>
<path d="M0 8.55744L0.668444 7.76612C1.34044 6.97481 2.67733 5.39219 4.01067 5.44165C5.344 5.49111 6.67378 7.17264 8.00711 7.78591C9.34044 8.38928 10.6773 7.93428 12.0107 8.45852C13.344 8.98276 14.6738 10.506 16.0071 10.0708C17.3404 9.64549 18.6773 7.27155 20.0107 5.52078C21.344 3.7799 22.6738 2.65228 24.0071 3.09739C25.3404 3.54251 26.6773 5.56035 28.0107 7.35069C29.344 9.15092 30.6738 10.7335 31.3351 11.5248L32 12.3162V32H31.3351C30.6738 32 29.344 32 28.0107 32C26.6773 32 25.3404 32 24.0071 32C22.6738 32 21.344 32 20.0107 32C18.6773 32 17.3404 32 16.0071 32C14.6738 32 13.344 32 12.0107 32C10.6773 32 9.34044 32 8.00711 32C6.67378 32 5.344 32 4.01067 32C2.67733 32 1.34044 32 0.668444 32H0V8.55744Z" fill="#D63EB4"/>
<path d="M0 9.58879L0.668444 10.5674C1.34044 11.5461 2.67733 13.5034 4.01067 14.5016C5.344 15.4901 6.67378 15.5292 8.00711 14.1689C9.34044 12.8183 10.6773 10.0781 12.0107 9.12882C13.344 8.18931 14.6738 9.03095 16.0071 9.37348C17.3404 9.71601 18.6773 9.55943 20.0107 9.02117C21.344 8.48291 22.6738 7.56297 24.0071 8.23824C25.3404 8.90373 26.6773 11.1546 28.0107 12.7009C29.344 14.257 30.6738 15.0986 31.3351 15.5292L32 15.95V32H31.3351C30.6738 32 29.344 32 28.0107 32C26.6773 32 25.3404 32 24.0071 32C22.6738 32 21.344 32 20.0107 32C18.6773 32 17.3404 32 16.0071 32C14.6738 32 13.344 32 12.0107 32C10.6773 32 9.34044 32 8.00711 32C6.67378 32 5.344 32 4.01067 32C2.67733 32 1.34044 32 0.668444 32H0V9.58879Z" fill="#C642BB"/>
<path d="M0 13L0.668444 13.2207C1.34044 13.451 2.67733 13.8924 4.01067 13.7389C5.344 13.5758 6.67378 12.8081 8.00711 13.499C9.34044 14.1803 10.6773 16.3298 12.0107 16.8864C13.344 17.4429 14.6738 16.4258 16.0071 16.1187C17.3404 15.8116 18.6773 16.2338 20.0107 15.6101C21.344 14.9864 22.6738 13.3167 24.0071 13.3167C25.3404 13.3167 26.6773 14.9864 28.0107 16.3394C29.344 17.702 30.6738 18.7576 31.3351 19.2854L32 19.8131V32H31.3351C30.6738 32 29.344 32 28.0107 32C26.6773 32 25.3404 32 24.0071 32C22.6738 32 21.344 32 20.0107 32C18.6773 32 17.3404 32 16.0071 32C14.6738 32 13.344 32 12.0107 32C10.6773 32 9.34044 32 8.00711 32C6.67378 32 5.344 32 4.01067 32C2.67733 32 1.34044 32 0.668444 32H0V13Z" fill="#B447C1"/>
<path d="M0 18.2546L0.668444 18.6699C1.34044 19.0754 2.67733 19.906 4.01067 19.7083C5.344 19.5105 6.67378 18.2843 8.00711 17.5327C9.34044 16.7713 10.6773 16.4746 12.0107 17.3646C13.344 18.2546 14.6738 20.3312 16.0071 20.8751C17.3404 21.419 18.6773 20.4301 20.0107 19.5599C21.344 18.6798 22.6738 17.9283 24.0071 17.2163C25.3404 16.5043 26.6773 15.8516 28.0107 16.0296C29.344 16.2076 30.6738 17.2361 31.3351 17.7404L32 18.2546V32H31.3351C30.6738 32 29.344 32 28.0107 32C26.6773 32 25.3404 32 24.0071 32C22.6738 32 21.344 32 20.0107 32C18.6773 32 17.3404 32 16.0071 32C14.6738 32 13.344 32 12.0107 32C10.6773 32 9.34044 32 8.00711 32C6.67378 32 5.344 32 4.01067 32C2.67733 32 1.34044 32 0.668444 32H0V18.2546Z" fill="#A14BC6"/>
<path d="M0 25.4194L0.668444 25.3516C1.34044 25.2935 2.67733 25.1581 4.01067 24.2581C5.344 23.3581 6.67378 21.6742 8.00711 20.9677C9.34044 20.2613 10.6773 20.5129 12.0107 20.9677C13.344 21.4226 14.6738 22.0613 16.0071 22.1484C17.3404 22.2258 18.6773 21.7419 20.0107 21.6452C21.344 21.5484 22.6738 21.8387 24.0071 21.7129C25.3404 21.5774 26.6773 21.0355 28.0107 20.6774C29.344 20.3194 30.6738 20.1645 31.3351 20.0774L32 20V32H31.3351C30.6738 32 29.344 32 28.0107 32C26.6773 32 25.3404 32 24.0071 32C22.6738 32 21.344 32 20.0107 32C18.6773 32 17.3404 32 16.0071 32C14.6738 32 13.344 32 12.0107 32C10.6773 32 9.34044 32 8.00711 32C6.67378 32 5.344 32 4.01067 32C2.67733 32 1.34044 32 0.668444 32H0V25.4194Z" fill="#8B50CA"/>
<path d="M0 27.891L0.668444 27.9184C1.34044 27.9549 2.67733 28.0097 4.01067 27.6171C5.344 27.2245 6.67378 26.3661 8.00711 26.1379C9.34044 25.9096 10.6773 26.3114 12.0107 26.6401C13.344 26.9779 14.6738 27.2519 16.0071 27.4619C17.3404 27.681 18.6773 27.8271 20.0107 27.5988C21.344 27.3706 22.6738 26.7679 24.0071 26.4027C25.3404 26.0374 26.6773 25.9096 28.0107 26.0648C29.344 26.22 30.6738 26.6401 31.3351 26.8592L32 27.0692V32H31.3351C30.6738 32 29.344 32 28.0107 32C26.6773 32 25.3404 32 24.0071 32C22.6738 32 21.344 32 20.0107 32C18.6773 32 17.3404 32 16.0071 32C14.6738 32 13.344 32 12.0107 32C10.6773 32 9.34044 32 8.00711 32C6.67378 32 5.344 32 4.01067 32C2.67733 32 1.34044 32 0.668444 32H0V27.891Z" fill="#7353CC"/>
<path d="M4.289 14.683V17.049L4.367 19.831C4.367 19.922 4.289 20 4.198 20H2.469C2.378 20 2.3 19.922 2.3 19.831L2.378 17.049V14.683H1.533C1.442 14.683 1.364 14.605 1.364 14.514V13.474C1.364 13.383 1.442 13.305 1.533 13.305H2.378V12.863C2.378 11.342 3.444 10.77 4.562 10.77C4.952 10.77 5.394 10.822 5.719 10.874C5.81 10.887 5.888 10.978 5.888 11.069V12.096C5.888 12.174 5.81 12.239 5.719 12.226C5.537 12.187 5.303 12.161 5.017 12.161C4.588 12.161 4.289 12.369 4.289 13.045V13.305H5.719C5.81 13.305 5.888 13.383 5.888 13.474V14.514C5.888 14.605 5.81 14.683 5.719 14.683H4.289ZM13.2173 16.633C13.2173 18.765 11.9823 20.169 9.79826 20.169C7.61426 20.169 6.35326 18.804 6.35326 16.672C6.35326 14.54 7.61426 13.136 9.79826 13.136C11.9823 13.136 13.2173 14.501 13.2173 16.633ZM8.34226 16.685C8.34226 18.193 8.82326 18.869 9.79826 18.869C10.7603 18.869 11.2153 18.206 11.2153 16.672C11.2153 15.164 10.7473 14.436 9.78526 14.436C8.79726 14.449 8.34226 15.177 8.34226 16.685ZM15.9341 20H14.2831C14.1921 20 14.1141 19.922 14.1141 19.831L14.1791 16.646L14.1141 13.474C14.1141 13.383 14.1921 13.305 14.2831 13.305H15.9081C15.9991 13.305 16.0771 13.383 16.0641 13.474L16.0251 14.436C16.5451 13.643 17.4421 13.253 18.4171 13.253C18.4951 13.253 18.5861 13.266 18.6641 13.279C18.7551 13.292 18.8331 13.383 18.8331 13.474V14.579C18.8331 14.67 18.7681 14.735 18.6641 14.735C18.5991 14.722 18.5341 14.722 18.4691 14.722C17.0911 14.722 16.0641 15.489 16.0771 17.023L16.1031 19.831C16.1031 19.922 16.0251 20 15.9341 20ZM21.4983 16.659V17.595L21.5763 19.831C21.5763 19.922 21.4983 20 21.4073 20H19.6913C19.6003 20 19.5223 19.922 19.5223 19.831L19.6003 17.595L19.5483 13.474C19.5483 13.383 19.6263 13.305 19.7173 13.305H21.2903C21.3813 13.305 21.4593 13.383 21.4463 13.474L21.4203 14.15C21.8883 13.5 22.4863 13.149 23.3443 13.149C24.2803 13.149 24.9433 13.552 25.2423 14.397C25.8273 13.396 26.5033 13.149 27.2963 13.149C28.6483 13.149 29.4283 13.968 29.4283 15.749V17.595L29.4803 19.831C29.4803 19.922 29.4023 20 29.3113 20H27.6213C27.5303 20 27.4523 19.922 27.4523 19.831L27.5303 17.595V15.775C27.5303 14.969 27.1793 14.579 26.6463 14.579C26.1133 14.579 25.4503 15.294 25.4503 16.659V17.595L25.5283 19.831C25.5283 19.922 25.4503 20 25.3593 20H23.6693C23.5783 20 23.5003 19.922 23.5003 19.831L23.5783 17.595V15.775C23.5783 14.969 23.2403 14.579 22.6943 14.579C22.1483 14.579 21.4983 15.294 21.4983 16.659Z" fill="#FCFBF4"/>
</g>
<defs>
<clipPath id="clip0_16_40">
<rect width="32" height="32" rx="16" fill="white"/>
</clipPath>
</defs>
</svg>
