<svg width="32" height="32" viewBox="0 0 32 32" fill="none" xmlns="http://www.w3.org/2000/svg">
<g clip-path="url(#clip0_18_49)">
<path d="M6.783 14.501V16.503L6.849 18.857C6.849 18.934 6.783 19 6.706 19H5.243C5.166 19 5.1 18.934 5.1 18.857L5.166 16.503V14.501H4.451C4.374 14.501 4.308 14.435 4.308 14.358V13.478C4.308 13.401 4.374 13.335 4.451 13.335H5.166V12.961C5.166 11.674 6.068 11.19 7.014 11.19C7.344 11.19 7.718 11.234 7.993 11.278C8.07 11.289 8.136 11.366 8.136 11.443V12.312C8.136 12.378 8.07 12.433 7.993 12.422C7.839 12.389 7.641 12.367 7.399 12.367C7.036 12.367 6.783 12.543 6.783 13.115V13.335H7.993C8.07 13.335 8.136 13.401 8.136 13.478V14.358C8.136 14.435 8.07 14.501 7.993 14.501H6.783ZM14.3377 16.151C14.3377 17.955 13.2927 19.143 11.4447 19.143C9.59668 19.143 8.52968 17.988 8.52968 16.184C8.52968 14.38 9.59668 13.192 11.4447 13.192C13.2927 13.192 14.3377 14.347 14.3377 16.151ZM10.2127 16.195C10.2127 17.471 10.6197 18.043 11.4447 18.043C12.2587 18.043 12.6437 17.482 12.6437 16.184C12.6437 14.908 12.2477 14.292 11.4337 14.292C10.5977 14.303 10.2127 14.919 10.2127 16.195ZM16.6365 19H15.2395C15.1625 19 15.0965 18.934 15.0965 18.857L15.1515 16.162L15.0965 13.478C15.0965 13.401 15.1625 13.335 15.2395 13.335H16.6145C16.6915 13.335 16.7575 13.401 16.7465 13.478L16.7135 14.292C17.1535 13.621 17.9125 13.291 18.7375 13.291C18.8035 13.291 18.8805 13.302 18.9465 13.313C19.0235 13.324 19.0895 13.401 19.0895 13.478V14.413C19.0895 14.49 19.0345 14.545 18.9465 14.545C18.8915 14.534 18.8365 14.534 18.7815 14.534C17.6155 14.534 16.7465 15.183 16.7575 16.481L16.7795 18.857C16.7795 18.934 16.7135 19 16.6365 19ZM21.3447 16.173V16.965L21.4107 18.857C21.4107 18.934 21.3447 19 21.2677 19H19.8157C19.7387 19 19.6727 18.934 19.6727 18.857L19.7387 16.965L19.6947 13.478C19.6947 13.401 19.7607 13.335 19.8377 13.335H21.1687C21.2457 13.335 21.3117 13.401 21.3007 13.478L21.2787 14.05C21.6747 13.5 22.1807 13.203 22.9067 13.203C23.6987 13.203 24.2597 13.544 24.5127 14.259C25.0077 13.412 25.5797 13.203 26.2507 13.203C27.3947 13.203 28.0547 13.896 28.0547 15.403V16.965L28.0987 18.857C28.0987 18.934 28.0327 19 27.9557 19H26.5257C26.4487 19 26.3827 18.934 26.3827 18.857L26.4487 16.965V15.425C26.4487 14.743 26.1517 14.413 25.7007 14.413C25.2497 14.413 24.6887 15.018 24.6887 16.173V16.965L24.7547 18.857C24.7547 18.934 24.6887 19 24.6117 19H23.1817C23.1047 19 23.0387 18.934 23.0387 18.857L23.1047 16.965V15.425C23.1047 14.743 22.8187 14.413 22.3567 14.413C21.8947 14.413 21.3447 15.018 21.3447 16.173Z" fill="#FCFBF4"/>
<path d="M0 0.46197L0.593778 0.371684C1.184 0.28892 2.37156 0.108346 3.55556 0.033107C4.73956 -0.0421322 5.816 -0.876196 7 -0.5C8.184 -0.123804 8.816 -1.33609 10 0.0332599C10.8333 -3.2989 16.5938 -1.63949 17.7778 -0.999962C18.9618 -0.360428 20.1493 -0.360428 21.3333 -0.999962C22.5173 -1.63949 22.816 -1.31597 24 -0.999962C25.184 -0.683957 27.316 -0.677153 28.5 0C29.684 0.677153 29.816 2.66963 31 2C32.184 1.33789 31.4098 4.75239 32 4V3.92297V32.0624H31.4062C30.816 32.0624 29.6284 32.0624 28.4444 32.0624C27.2604 32.0624 26.0729 32.0624 24.8889 32.0624C23.7049 32.0624 22.5173 32.0624 21.3333 32.0624C20.1493 32.0624 18.9618 32.0624 17.7778 32.0624C16.5938 32.0624 15.4062 32.0624 14.2222 32.0624C13.0382 32.0624 11.8507 32.0624 10.6667 32.0624C9.48267 32.0624 8.29511 32.0624 7.11111 32.0624C5.92711 32.0624 4.73956 32.0624 3.55556 32.0624C2.37156 32.0624 1.184 32.0624 0.593778 32.0624H0V0.46197Z" fill="#074446"/>
<path d="M0 8.12969L0.593778 8.55867C1.184 8.98013 2.37156 9.8381 3.55556 9.93594C4.73956 10.0338 5.92711 9.38654 7.11111 8.5963C8.29511 7.80607 9.48267 6.87284 10.6667 7.50503C11.8507 8.12969 13.0382 10.3122 14.2222 10.109C15.4062 9.91336 16.5938 7.3244 17.7778 6.79758C18.9618 6.27075 20.1493 7.80607 21.3333 8.50599C22.5173 9.20591 23.7049 9.08549 24.8889 9.59727C26.0729 10.109 27.2604 11.268 28.4444 10.5982C29.6284 9.93594 30.816 7.45234 31.4062 6.21055L32 4.96875V32.0625H31.4062C30.816 32.0625 29.6284 32.0625 28.4444 32.0625C27.2604 32.0625 26.0729 32.0625 24.8889 32.0625C23.7049 32.0625 22.5173 32.0625 21.3333 32.0625C20.1493 32.0625 18.9618 32.0625 17.7778 32.0625C16.5938 32.0625 15.4062 32.0625 14.2222 32.0625C13.0382 32.0625 11.8507 32.0625 10.6667 32.0625C9.48267 32.0625 8.29511 32.0625 7.11111 32.0625C5.92711 32.0625 4.73956 32.0625 3.55556 32.0625C2.37156 32.0625 1.184 32.0625 0.593778 32.0625H0V8.12969Z" fill="#003A46"/>
<path d="M0 15.864L0.593778 15.5627C1.184 15.2613 2.37156 14.6586 3.55556 14.6435C4.73956 14.636 5.92711 15.2085 7.11111 14.4175C8.29511 13.6264 9.48267 11.4716 10.6667 10.4017C11.8507 9.33189 13.0382 9.36203 14.2222 9.29422C15.4062 9.23395 16.5938 9.08327 17.7778 9.13601C18.9618 9.18121 20.1493 9.43737 21.3333 10.4017C22.5173 11.3661 23.7049 13.0538 24.8889 13.9277C26.0729 14.8092 27.2604 14.8846 28.4444 14.8318C29.6284 14.7866 30.816 14.6058 31.4062 14.5229L32 14.4325V32.0625H31.4062C30.816 32.0625 29.6284 32.0625 28.4444 32.0625C27.2604 32.0625 26.0729 32.0625 24.8889 32.0625C23.7049 32.0625 22.5173 32.0625 21.3333 32.0625C20.1493 32.0625 18.9618 32.0625 17.7778 32.0625C16.5938 32.0625 15.4062 32.0625 14.2222 32.0625C13.0382 32.0625 11.8507 32.0625 10.6667 32.0625C9.48267 32.0625 8.29511 32.0625 7.11111 32.0625C5.92711 32.0625 4.73956 32.0625 3.55556 32.0625C2.37156 32.0625 1.184 32.0625 0.593778 32.0625H0V15.864Z" fill="#002F43"/>
<path d="M0 16.1063L0.593778 16.43C1.184 16.7611 2.37156 17.4084 3.55556 17.2503C4.73956 17.0848 5.92711 16.1063 7.11111 16.4074C8.29511 16.7084 9.48267 18.289 10.6667 18.8309C11.8507 19.3653 13.0382 18.8685 14.2222 18.2137C15.4062 17.5589 16.5938 16.7611 17.7778 16.3321C18.9618 15.9031 20.1493 15.8579 21.3333 16.3848C22.5173 16.9117 23.7049 18.0105 24.8889 18.0632C26.0729 18.1159 27.2604 17.1073 28.4444 16.9342C29.6284 16.7611 30.816 17.4084 31.4062 17.7396L32 18.0632V32.0625H31.4062C30.816 32.0625 29.6284 32.0625 28.4444 32.0625C27.2604 32.0625 26.0729 32.0625 24.8889 32.0625C23.7049 32.0625 22.5173 32.0625 21.3333 32.0625C20.1493 32.0625 18.9618 32.0625 17.7778 32.0625C16.5938 32.0625 15.4062 32.0625 14.2222 32.0625C13.0382 32.0625 11.8507 32.0625 10.6667 32.0625C9.48267 32.0625 8.29511 32.0625 7.11111 32.0625C5.92711 32.0625 4.73956 32.0625 3.55556 32.0625C2.37156 32.0625 1.184 32.0625 0.593778 32.0625H0V16.1063Z" fill="#00243D"/>
<path d="M0 18.75L0.593778 19.5247C1.184 20.3069 2.37156 21.8563 3.55556 22.5256C4.73956 23.1875 5.92711 22.9619 7.11111 22.3602C8.29511 21.7585 9.48267 20.7807 10.6667 20.4799C11.8507 20.179 13.0382 20.5551 14.2222 20.3821C15.4062 20.2016 16.5938 19.4796 17.7778 19.8631C18.9618 20.2542 20.1493 21.7585 21.3333 22.0217C22.5173 22.285 23.7049 21.3072 24.8889 20.8935C26.0729 20.4799 27.2604 20.6303 28.4444 20.8935C29.6284 21.1568 30.816 21.5328 31.4062 21.7209L32 21.9089V32.0625H31.4062C30.816 32.0625 29.6284 32.0625 28.4444 32.0625C27.2604 32.0625 26.0729 32.0625 24.8889 32.0625C23.7049 32.0625 22.5173 32.0625 21.3333 32.0625C20.1493 32.0625 18.9618 32.0625 17.7778 32.0625C16.5938 32.0625 15.4062 32.0625 14.2222 32.0625C13.0382 32.0625 11.8507 32.0625 10.6667 32.0625C9.48267 32.0625 8.29511 32.0625 7.11111 32.0625C5.92711 32.0625 4.73956 32.0625 3.55556 32.0625C2.37156 32.0625 1.184 32.0625 0.593778 32.0625H0V18.75Z" fill="#001936"/>
<path d="M0 27.1577L0.593778 27.0596C1.184 26.954 2.37156 26.7578 3.55556 26.4258C4.73956 26.1013 5.92711 25.6485 7.11111 25.2939C8.29511 24.9468 9.48267 24.6902 10.6667 25.0449C11.8507 25.3995 13.0382 26.3503 14.2222 26.3654C15.4062 26.3805 16.5938 25.4448 17.7778 25.3467C18.9618 25.2486 20.1493 25.973 21.3333 25.8221C22.5173 25.6712 23.7049 24.6449 24.8889 24.4035C26.0729 24.162 27.2604 24.7204 28.4444 24.8789C29.6284 25.0449 30.816 24.8185 31.4062 24.7053L32 24.5921V32.0625H31.4062C30.816 32.0625 29.6284 32.0625 28.4444 32.0625C27.2604 32.0625 26.0729 32.0625 24.8889 32.0625C23.7049 32.0625 22.5173 32.0625 21.3333 32.0625C20.1493 32.0625 18.9618 32.0625 17.7778 32.0625C16.5938 32.0625 15.4062 32.0625 14.2222 32.0625C13.0382 32.0625 11.8507 32.0625 10.6667 32.0625C9.48267 32.0625 8.29511 32.0625 7.11111 32.0625C5.92711 32.0625 4.73956 32.0625 3.55556 32.0625C2.37156 32.0625 1.184 32.0625 0.593778 32.0625H0V27.1577Z" fill="#01092D"/>
<path d="M7.53 14.91V16.73L7.59 18.87C7.59 18.94 7.53 19 7.46 19H6.13C6.06 19 6 18.94 6 18.87L6.06 16.73V14.91H5.41C5.34 14.91 5.28 14.85 5.28 14.78V13.98C5.28 13.91 5.34 13.85 5.41 13.85H6.06V13.51C6.06 12.34 6.88 11.9 7.74 11.9C8.04 11.9 8.38 11.94 8.63 11.98C8.7 11.99 8.76 12.06 8.76 12.13V12.92C8.76 12.98 8.7 13.03 8.63 13.02C8.49 12.99 8.31 12.97 8.09 12.97C7.76 12.97 7.53 13.13 7.53 13.65V13.85H8.63C8.7 13.85 8.76 13.91 8.76 13.98V14.78C8.76 14.85 8.7 14.91 8.63 14.91H7.53ZM14.3979 16.41C14.3979 18.05 13.4479 19.13 11.7679 19.13C10.0879 19.13 9.11789 18.08 9.11789 16.44C9.11789 14.8 10.0879 13.72 11.7679 13.72C13.4479 13.72 14.3979 14.77 14.3979 16.41ZM10.6479 16.45C10.6479 17.61 11.0179 18.13 11.7679 18.13C12.5079 18.13 12.8579 17.62 12.8579 16.44C12.8579 15.28 12.4979 14.72 11.7579 14.72C10.9979 14.73 10.6479 15.29 10.6479 16.45ZM16.4877 19H15.2177C15.1477 19 15.0877 18.94 15.0877 18.87L15.1377 16.42L15.0877 13.98C15.0877 13.91 15.1477 13.85 15.2177 13.85H16.4677C16.5377 13.85 16.5977 13.91 16.5877 13.98L16.5577 14.72C16.9577 14.11 17.6477 13.81 18.3977 13.81C18.4577 13.81 18.5277 13.82 18.5877 13.83C18.6577 13.84 18.7177 13.91 18.7177 13.98V14.83C18.7177 14.9 18.6677 14.95 18.5877 14.95C18.5377 14.94 18.4877 14.94 18.4377 14.94C17.3777 14.94 16.5877 15.53 16.5977 16.71L16.6177 18.87C16.6177 18.94 16.5577 19 16.4877 19ZM20.7679 16.43V17.15L20.8279 18.87C20.8279 18.94 20.7679 19 20.6979 19H19.3779C19.3079 19 19.2479 18.94 19.2479 18.87L19.3079 17.15L19.2679 13.98C19.2679 13.91 19.3279 13.85 19.3979 13.85H20.6079C20.6779 13.85 20.7379 13.91 20.7279 13.98L20.7079 14.5C21.0679 14 21.5279 13.73 22.1879 13.73C22.9079 13.73 23.4179 14.04 23.6479 14.69C24.0979 13.92 24.6179 13.73 25.2279 13.73C26.2679 13.73 26.8679 14.36 26.8679 15.73V17.15L26.9079 18.87C26.9079 18.94 26.8479 19 26.7779 19H25.4779C25.4079 19 25.3479 18.94 25.3479 18.87L25.4079 17.15V15.75C25.4079 15.13 25.1379 14.83 24.7279 14.83C24.3179 14.83 23.8079 15.38 23.8079 16.43V17.15L23.8679 18.87C23.8679 18.94 23.8079 19 23.7379 19H22.4379C22.3679 19 22.3079 18.94 22.3079 18.87L22.3679 17.15V15.75C22.3679 15.13 22.1079 14.83 21.6879 14.83C21.2679 14.83 20.7679 15.38 20.7679 16.43Z" fill="white"/>
</g>
<defs>
<clipPath id="clip0_18_49">
<rect width="32" height="32" rx="8" fill="white"/>
</clipPath>
</defs>
</svg>
