<svg width="32" height="32" viewBox="0 0 32 32" fill="none" xmlns="http://www.w3.org/2000/svg">
<g clip-path="url(#clip0_16_10)">
<path d="M0 0.462034L0.593778 0.371747C1.184 0.288984 2.37156 0.10841 3.55556 0.033171C4.73956 -0.0420682 5.92711 -0.011973 7.11111 0.364223C8.29511 0.740419 9.48267 1.46272 10.6667 2.83207C11.8507 4.20142 13.0382 6.20278 14.2222 6.84232C15.4062 7.48185 16.5938 6.75956 17.7778 6.12002C18.9618 5.48049 20.1493 4.92372 21.3333 5.23972C22.5173 5.55573 23.7049 6.72946 24.8889 7.40661C26.0729 8.08376 27.2604 8.26434 28.4444 7.59471C29.6284 6.9326 30.816 5.42782 31.4062 4.67543L32 3.92304V32.0625H31.4062C30.816 32.0625 29.6284 32.0625 28.4444 32.0625C27.2604 32.0625 26.0729 32.0625 24.8889 32.0625C23.7049 32.0625 22.5173 32.0625 21.3333 32.0625C20.1493 32.0625 18.9618 32.0625 17.7778 32.0625C16.5938 32.0625 15.4062 32.0625 14.2222 32.0625C13.0382 32.0625 11.8507 32.0625 10.6667 32.0625C9.48267 32.0625 8.29511 32.0625 7.11111 32.0625C5.92711 32.0625 4.73956 32.0625 3.55556 32.0625C2.37156 32.0625 1.184 32.0625 0.593778 32.0625H0V0.462034Z" fill="#074446"/>
<path d="M0 8.12969L0.593778 8.55867C1.184 8.98013 2.37156 9.8381 3.55556 9.93594C4.73956 10.0338 5.92711 9.38654 7.11111 8.5963C8.29511 7.80607 9.48267 6.87284 10.6667 7.50503C11.8507 8.12969 13.0382 10.3122 14.2222 10.109C15.4062 9.91336 16.5938 7.3244 17.7778 6.79758C18.9618 6.27075 20.1493 7.80607 21.3333 8.50599C22.5173 9.20591 23.7049 9.08549 24.8889 9.59727C26.0729 10.109 27.2604 11.268 28.4444 10.5982C29.6284 9.93594 30.816 7.45234 31.4062 6.21055L32 4.96875V32.0625H31.4062C30.816 32.0625 29.6284 32.0625 28.4444 32.0625C27.2604 32.0625 26.0729 32.0625 24.8889 32.0625C23.7049 32.0625 22.5173 32.0625 21.3333 32.0625C20.1493 32.0625 18.9618 32.0625 17.7778 32.0625C16.5938 32.0625 15.4062 32.0625 14.2222 32.0625C13.0382 32.0625 11.8507 32.0625 10.6667 32.0625C9.48267 32.0625 8.29511 32.0625 7.11111 32.0625C5.92711 32.0625 4.73956 32.0625 3.55556 32.0625C2.37156 32.0625 1.184 32.0625 0.593778 32.0625H0V8.12969Z" fill="#003A46"/>
<path d="M0 15.864L0.593778 15.5627C1.184 15.2613 2.37156 14.6586 3.55556 14.6435C4.73956 14.636 5.92711 15.2085 7.11111 14.4175C8.29511 13.6264 9.48267 11.4716 10.6667 10.4017C11.8507 9.33189 13.0382 9.36203 14.2222 9.29422C15.4062 9.23395 16.5938 9.08327 17.7778 9.13601C18.9618 9.18121 20.1493 9.43737 21.3333 10.4017C22.5173 11.3661 23.7049 13.0538 24.8889 13.9277C26.0729 14.8092 27.2604 14.8846 28.4444 14.8318C29.6284 14.7866 30.816 14.6058 31.4062 14.5229L32 14.4325V32.0625H31.4062C30.816 32.0625 29.6284 32.0625 28.4444 32.0625C27.2604 32.0625 26.0729 32.0625 24.8889 32.0625C23.7049 32.0625 22.5173 32.0625 21.3333 32.0625C20.1493 32.0625 18.9618 32.0625 17.7778 32.0625C16.5938 32.0625 15.4062 32.0625 14.2222 32.0625C13.0382 32.0625 11.8507 32.0625 10.6667 32.0625C9.48267 32.0625 8.29511 32.0625 7.11111 32.0625C5.92711 32.0625 4.73956 32.0625 3.55556 32.0625C2.37156 32.0625 1.184 32.0625 0.593778 32.0625H0V15.864Z" fill="#002F43"/>
<path d="M0 16.1063L0.593778 16.43C1.184 16.7611 2.37156 17.4084 3.55556 17.2503C4.73956 17.0848 5.92711 16.1063 7.11111 16.4074C8.29511 16.7084 9.48267 18.289 10.6667 18.8309C11.8507 19.3653 13.0382 18.8685 14.2222 18.2137C15.4062 17.5589 16.5938 16.7611 17.7778 16.3321C18.9618 15.9031 20.1493 15.8579 21.3333 16.3848C22.5173 16.9117 23.7049 18.0105 24.8889 18.0632C26.0729 18.1159 27.2604 17.1073 28.4444 16.9342C29.6284 16.7611 30.816 17.4084 31.4062 17.7396L32 18.0632V32.0625H31.4062C30.816 32.0625 29.6284 32.0625 28.4444 32.0625C27.2604 32.0625 26.0729 32.0625 24.8889 32.0625C23.7049 32.0625 22.5173 32.0625 21.3333 32.0625C20.1493 32.0625 18.9618 32.0625 17.7778 32.0625C16.5938 32.0625 15.4062 32.0625 14.2222 32.0625C13.0382 32.0625 11.8507 32.0625 10.6667 32.0625C9.48267 32.0625 8.29511 32.0625 7.11111 32.0625C5.92711 32.0625 4.73956 32.0625 3.55556 32.0625C2.37156 32.0625 1.184 32.0625 0.593778 32.0625H0V16.1063Z" fill="#00243D"/>
<path d="M0 18.75L0.593778 19.5247C1.184 20.3069 2.37156 21.8563 3.55556 22.5256C4.73956 23.1875 5.92711 22.9619 7.11111 22.3602C8.29511 21.7585 9.48267 20.7807 10.6667 20.4799C11.8507 20.179 13.0382 20.5551 14.2222 20.3821C15.4062 20.2016 16.5938 19.4796 17.7778 19.8631C18.9618 20.2542 20.1493 21.7585 21.3333 22.0217C22.5173 22.285 23.7049 21.3072 24.8889 20.8935C26.0729 20.4799 27.2604 20.6303 28.4444 20.8935C29.6284 21.1568 30.816 21.5328 31.4062 21.7209L32 21.9089V32.0625H31.4062C30.816 32.0625 29.6284 32.0625 28.4444 32.0625C27.2604 32.0625 26.0729 32.0625 24.8889 32.0625C23.7049 32.0625 22.5173 32.0625 21.3333 32.0625C20.1493 32.0625 18.9618 32.0625 17.7778 32.0625C16.5938 32.0625 15.4062 32.0625 14.2222 32.0625C13.0382 32.0625 11.8507 32.0625 10.6667 32.0625C9.48267 32.0625 8.29511 32.0625 7.11111 32.0625C5.92711 32.0625 4.73956 32.0625 3.55556 32.0625C2.37156 32.0625 1.184 32.0625 0.593778 32.0625H0V18.75Z" fill="#001936"/>
<path d="M0 27.1577L0.593778 27.0596C1.184 26.954 2.37156 26.7578 3.55556 26.4258C4.73956 26.1013 5.92711 25.6485 7.11111 25.2939C8.29511 24.9468 9.48267 24.6902 10.6667 25.0449C11.8507 25.3995 13.0382 26.3503 14.2222 26.3654C15.4062 26.3805 16.5938 25.4448 17.7778 25.3467C18.9618 25.2486 20.1493 25.973 21.3333 25.8221C22.5173 25.6712 23.7049 24.6449 24.8889 24.4035C26.0729 24.162 27.2604 24.7204 28.4444 24.8789C29.6284 25.0449 30.816 24.8185 31.4062 24.7053L32 24.5921V32.0625H31.4062C30.816 32.0625 29.6284 32.0625 28.4444 32.0625C27.2604 32.0625 26.0729 32.0625 24.8889 32.0625C23.7049 32.0625 22.5173 32.0625 21.3333 32.0625C20.1493 32.0625 18.9618 32.0625 17.7778 32.0625C16.5938 32.0625 15.4062 32.0625 14.2222 32.0625C13.0382 32.0625 11.8507 32.0625 10.6667 32.0625C9.48267 32.0625 8.29511 32.0625 7.11111 32.0625C5.92711 32.0625 4.73956 32.0625 3.55556 32.0625C2.37156 32.0625 1.184 32.0625 0.593778 32.0625H0V27.1577Z" fill="#01092D"/>
</g>
<defs>
<clipPath id="clip0_16_10">
<rect width="32" height="32" rx="16" fill="white"/>
</clipPath>
</defs>
</svg>
