<svg width="32" height="32" viewBox="0 0 32 32" fill="none" xmlns="http://www.w3.org/2000/svg">
<g clip-path="url(#clip0_16_18)">
<path d="M0 0L0.668444 0.196319C1.34044 0.392638 2.67733 0.785276 4.01067 1.91411C5.344 3.04294 6.67378 4.90797 8.00711 4.83926C9.34044 4.78037 10.6773 2.77792 12.0107 2.08098C13.344 1.37423 14.6738 1.96319 16.0071 1.93374C17.3404 1.89448 18.6773 1.24662 20.0107 1.20736C21.344 1.17791 22.6738 1.76687 24.0071 1.55092C25.3404 1.34478 26.6773 0.323928 28.0107 1.29571C29.344 2.25767 30.6738 5.20245 31.3351 6.67485L32 8.14724V32H31.3351C30.6738 32 29.344 32 28.0107 32C26.6773 32 25.3404 32 24.0071 32C22.6738 32 21.344 32 20.0107 32C18.6773 32 17.3404 32 16.0071 32C14.6738 32 13.344 32 12.0107 32C10.6773 32 9.34044 32 8.00711 32C6.67378 32 5.344 32 4.01067 32C2.67733 32 1.34044 32 0.668444 32H0V0Z" fill="#E53AAC"/>
<path d="M0 8.55744L0.668444 7.76612C1.34044 6.97481 2.67733 5.39219 4.01067 5.44165C5.344 5.49111 6.67378 7.17264 8.00711 7.78591C9.34044 8.38928 10.6773 7.93428 12.0107 8.45852C13.344 8.98276 14.6738 10.506 16.0071 10.0708C17.3404 9.64549 18.6773 7.27155 20.0107 5.52078C21.344 3.7799 22.6738 2.65228 24.0071 3.09739C25.3404 3.54251 26.6773 5.56035 28.0107 7.35069C29.344 9.15092 30.6738 10.7335 31.3351 11.5248L32 12.3162V32H31.3351C30.6738 32 29.344 32 28.0107 32C26.6773 32 25.3404 32 24.0071 32C22.6738 32 21.344 32 20.0107 32C18.6773 32 17.3404 32 16.0071 32C14.6738 32 13.344 32 12.0107 32C10.6773 32 9.34044 32 8.00711 32C6.67378 32 5.344 32 4.01067 32C2.67733 32 1.34044 32 0.668444 32H0V8.55744Z" fill="#D63EB4"/>
<path d="M0 9.58879L0.668444 10.5674C1.34044 11.5461 2.67733 13.5034 4.01067 14.5016C5.344 15.4901 6.67378 15.5292 8.00711 14.1689C9.34044 12.8183 10.6773 10.0781 12.0107 9.12882C13.344 8.18931 14.6738 9.03095 16.0071 9.37348C17.3404 9.71601 18.6773 9.55943 20.0107 9.02117C21.344 8.48291 22.6738 7.56297 24.0071 8.23824C25.3404 8.90373 26.6773 11.1546 28.0107 12.7009C29.344 14.257 30.6738 15.0986 31.3351 15.5292L32 15.95V32H31.3351C30.6738 32 29.344 32 28.0107 32C26.6773 32 25.3404 32 24.0071 32C22.6738 32 21.344 32 20.0107 32C18.6773 32 17.3404 32 16.0071 32C14.6738 32 13.344 32 12.0107 32C10.6773 32 9.34044 32 8.00711 32C6.67378 32 5.344 32 4.01067 32C2.67733 32 1.34044 32 0.668444 32H0V9.58879Z" fill="#C642BB"/>
<path d="M0 13L0.668444 13.2207C1.34044 13.451 2.67733 13.8924 4.01067 13.7389C5.344 13.5758 6.67378 12.8081 8.00711 13.499C9.34044 14.1803 10.6773 16.3298 12.0107 16.8864C13.344 17.4429 14.6738 16.4258 16.0071 16.1187C17.3404 15.8116 18.6773 16.2338 20.0107 15.6101C21.344 14.9864 22.6738 13.3167 24.0071 13.3167C25.3404 13.3167 26.6773 14.9864 28.0107 16.3394C29.344 17.702 30.6738 18.7576 31.3351 19.2854L32 19.8131V32H31.3351C30.6738 32 29.344 32 28.0107 32C26.6773 32 25.3404 32 24.0071 32C22.6738 32 21.344 32 20.0107 32C18.6773 32 17.3404 32 16.0071 32C14.6738 32 13.344 32 12.0107 32C10.6773 32 9.34044 32 8.00711 32C6.67378 32 5.344 32 4.01067 32C2.67733 32 1.34044 32 0.668444 32H0V13Z" fill="#B447C1"/>
<path d="M0 18.2546L0.668444 18.6699C1.34044 19.0754 2.67733 19.906 4.01067 19.7083C5.344 19.5105 6.67378 18.2843 8.00711 17.5327C9.34044 16.7713 10.6773 16.4746 12.0107 17.3646C13.344 18.2546 14.6738 20.3312 16.0071 20.8751C17.3404 21.419 18.6773 20.4301 20.0107 19.5599C21.344 18.6798 22.6738 17.9283 24.0071 17.2163C25.3404 16.5043 26.6773 15.8516 28.0107 16.0296C29.344 16.2076 30.6738 17.2361 31.3351 17.7404L32 18.2546V32H31.3351C30.6738 32 29.344 32 28.0107 32C26.6773 32 25.3404 32 24.0071 32C22.6738 32 21.344 32 20.0107 32C18.6773 32 17.3404 32 16.0071 32C14.6738 32 13.344 32 12.0107 32C10.6773 32 9.34044 32 8.00711 32C6.67378 32 5.344 32 4.01067 32C2.67733 32 1.34044 32 0.668444 32H0V18.2546Z" fill="#A14BC6"/>
<path d="M0 25.4194L0.668444 25.3516C1.34044 25.2935 2.67733 25.1581 4.01067 24.2581C5.344 23.3581 6.67378 21.6742 8.00711 20.9677C9.34044 20.2613 10.6773 20.5129 12.0107 20.9677C13.344 21.4226 14.6738 22.0613 16.0071 22.1484C17.3404 22.2258 18.6773 21.7419 20.0107 21.6452C21.344 21.5484 22.6738 21.8387 24.0071 21.7129C25.3404 21.5774 26.6773 21.0355 28.0107 20.6774C29.344 20.3194 30.6738 20.1645 31.3351 20.0774L32 20V32H31.3351C30.6738 32 29.344 32 28.0107 32C26.6773 32 25.3404 32 24.0071 32C22.6738 32 21.344 32 20.0107 32C18.6773 32 17.3404 32 16.0071 32C14.6738 32 13.344 32 12.0107 32C10.6773 32 9.34044 32 8.00711 32C6.67378 32 5.344 32 4.01067 32C2.67733 32 1.34044 32 0.668444 32H0V25.4194Z" fill="#8B50CA"/>
<path d="M0 27.891L0.668444 27.9184C1.34044 27.9549 2.67733 28.0097 4.01067 27.6171C5.344 27.2245 6.67378 26.3661 8.00711 26.1379C9.34044 25.9096 10.6773 26.3114 12.0107 26.6401C13.344 26.9779 14.6738 27.2519 16.0071 27.4619C17.3404 27.681 18.6773 27.8271 20.0107 27.5988C21.344 27.3706 22.6738 26.7679 24.0071 26.4027C25.3404 26.0374 26.6773 25.9096 28.0107 26.0648C29.344 26.22 30.6738 26.6401 31.3351 26.8592L32 27.0692V32H31.3351C30.6738 32 29.344 32 28.0107 32C26.6773 32 25.3404 32 24.0071 32C22.6738 32 21.344 32 20.0107 32C18.6773 32 17.3404 32 16.0071 32C14.6738 32 13.344 32 12.0107 32C10.6773 32 9.34044 32 8.00711 32C6.67378 32 5.344 32 4.01067 32C2.67733 32 1.34044 32 0.668444 32H0V27.891Z" fill="#7353CC"/>
</g>
<defs>
<clipPath id="clip0_16_18">
<rect width="32" height="32" rx="16" fill="white"/>
</clipPath>
</defs>
</svg>
